G04 #@! TF.GenerationSoftware,KiCad,Pcbnew,5.1.5-52549c5~84~ubuntu18.04.1*
G04 #@! TF.CreationDate,2020-04-26T13:35:48+09:30*
G04 #@! TF.ProjectId,SpecAnFrontEnd,53706563-416e-4467-926f-6e74456e642e,rev?*
G04 #@! TF.SameCoordinates,Original*
G04 #@! TF.FileFunction,Soldermask,Bot*
G04 #@! TF.FilePolarity,Negative*
%FSLAX46Y46*%
G04 Gerber Fmt 4.6, Leading zero omitted, Abs format (unit mm)*
G04 Created by KiCad (PCBNEW 5.1.5-52549c5~84~ubuntu18.04.1) date 2020-04-26 13:35:48*
%MOMM*%
%LPD*%
G04 APERTURE LIST*
%ADD10C,0.100000*%
G04 APERTURE END LIST*
D10*
G36*
X108881000Y-169111000D02*
G01*
X106359000Y-169111000D01*
X106359000Y-163929000D01*
X108881000Y-163929000D01*
X108881000Y-169111000D01*
G37*
G36*
X117641000Y-169111000D02*
G01*
X115119000Y-169111000D01*
X115119000Y-163929000D01*
X117641000Y-163929000D01*
X117641000Y-169111000D01*
G37*
G36*
X135871304Y-135487002D02*
G01*
X136290139Y-135660489D01*
X136290141Y-135660490D01*
X136479891Y-135787277D01*
X136667082Y-135912354D01*
X136987646Y-136232918D01*
X137239511Y-136609861D01*
X137412998Y-137028696D01*
X137501440Y-137473327D01*
X137501440Y-137926673D01*
X137412998Y-138371304D01*
X137239511Y-138790139D01*
X137239510Y-138790141D01*
X136987645Y-139167083D01*
X136667083Y-139487645D01*
X136290141Y-139739510D01*
X136290140Y-139739511D01*
X136290139Y-139739511D01*
X135871304Y-139912998D01*
X135426673Y-140001440D01*
X134973327Y-140001440D01*
X134528696Y-139912998D01*
X134109861Y-139739511D01*
X134109860Y-139739511D01*
X134109859Y-139739510D01*
X133732917Y-139487645D01*
X133412355Y-139167083D01*
X133160490Y-138790141D01*
X133160489Y-138790139D01*
X132987002Y-138371304D01*
X132898560Y-137926673D01*
X132898560Y-137473327D01*
X132987002Y-137028696D01*
X133160489Y-136609861D01*
X133412354Y-136232918D01*
X133732918Y-135912354D01*
X133920109Y-135787277D01*
X134109859Y-135660490D01*
X134109861Y-135660489D01*
X134528696Y-135487002D01*
X134973327Y-135398560D01*
X135426673Y-135398560D01*
X135871304Y-135487002D01*
G37*
G36*
X135371304Y-124087002D02*
G01*
X135790139Y-124260489D01*
X135790141Y-124260490D01*
X135979891Y-124387277D01*
X136167082Y-124512354D01*
X136487646Y-124832918D01*
X136739511Y-125209861D01*
X136912998Y-125628696D01*
X137001440Y-126073327D01*
X137001440Y-126526673D01*
X136912998Y-126971304D01*
X136739511Y-127390139D01*
X136739510Y-127390141D01*
X136487645Y-127767083D01*
X136167083Y-128087645D01*
X135790141Y-128339510D01*
X135790140Y-128339511D01*
X135790139Y-128339511D01*
X135371304Y-128512998D01*
X134926673Y-128601440D01*
X134473327Y-128601440D01*
X134028696Y-128512998D01*
X133609861Y-128339511D01*
X133609860Y-128339511D01*
X133609859Y-128339510D01*
X133232917Y-128087645D01*
X132912355Y-127767083D01*
X132660490Y-127390141D01*
X132660489Y-127390139D01*
X132487002Y-126971304D01*
X132398560Y-126526673D01*
X132398560Y-126073327D01*
X132487002Y-125628696D01*
X132660489Y-125209861D01*
X132912354Y-124832918D01*
X133232918Y-124512354D01*
X133420109Y-124387277D01*
X133609859Y-124260490D01*
X133609861Y-124260489D01*
X134028696Y-124087002D01*
X134473327Y-123998560D01*
X134926673Y-123998560D01*
X135371304Y-124087002D01*
G37*
G36*
X111851000Y-115091000D02*
G01*
X110249000Y-115091000D01*
X110249000Y-109909000D01*
X111851000Y-109909000D01*
X111851000Y-115091000D01*
G37*
G36*
X103351000Y-115091000D02*
G01*
X101749000Y-115091000D01*
X101749000Y-109909000D01*
X103351000Y-109909000D01*
X103351000Y-115091000D01*
G37*
G36*
X97841000Y-80491000D02*
G01*
X95319000Y-80491000D01*
X95319000Y-75309000D01*
X97841000Y-75309000D01*
X97841000Y-80491000D01*
G37*
G36*
X89081000Y-80491000D02*
G01*
X86559000Y-80491000D01*
X86559000Y-75309000D01*
X89081000Y-75309000D01*
X89081000Y-80491000D01*
G37*
G36*
X32113512Y-60703927D02*
G01*
X32262812Y-60733624D01*
X32426784Y-60801544D01*
X32574354Y-60900147D01*
X32699853Y-61025646D01*
X32798456Y-61173216D01*
X32866376Y-61337188D01*
X32901000Y-61511259D01*
X32901000Y-61688741D01*
X32866376Y-61862812D01*
X32798456Y-62026784D01*
X32699853Y-62174354D01*
X32574354Y-62299853D01*
X32426784Y-62398456D01*
X32262812Y-62466376D01*
X32113512Y-62496073D01*
X32088742Y-62501000D01*
X31911258Y-62501000D01*
X31886488Y-62496073D01*
X31737188Y-62466376D01*
X31573216Y-62398456D01*
X31425646Y-62299853D01*
X31300147Y-62174354D01*
X31201544Y-62026784D01*
X31133624Y-61862812D01*
X31099000Y-61688741D01*
X31099000Y-61511259D01*
X31133624Y-61337188D01*
X31201544Y-61173216D01*
X31300147Y-61025646D01*
X31425646Y-60900147D01*
X31573216Y-60801544D01*
X31737188Y-60733624D01*
X31886488Y-60703927D01*
X31911258Y-60699000D01*
X32088742Y-60699000D01*
X32113512Y-60703927D01*
G37*
G36*
X32113512Y-58163927D02*
G01*
X32262812Y-58193624D01*
X32426784Y-58261544D01*
X32574354Y-58360147D01*
X32699853Y-58485646D01*
X32798456Y-58633216D01*
X32866376Y-58797188D01*
X32901000Y-58971259D01*
X32901000Y-59148741D01*
X32866376Y-59322812D01*
X32798456Y-59486784D01*
X32699853Y-59634354D01*
X32574354Y-59759853D01*
X32426784Y-59858456D01*
X32262812Y-59926376D01*
X32113512Y-59956073D01*
X32088742Y-59961000D01*
X31911258Y-59961000D01*
X31886488Y-59956073D01*
X31737188Y-59926376D01*
X31573216Y-59858456D01*
X31425646Y-59759853D01*
X31300147Y-59634354D01*
X31201544Y-59486784D01*
X31133624Y-59322812D01*
X31099000Y-59148741D01*
X31099000Y-58971259D01*
X31133624Y-58797188D01*
X31201544Y-58633216D01*
X31300147Y-58485646D01*
X31425646Y-58360147D01*
X31573216Y-58261544D01*
X31737188Y-58193624D01*
X31886488Y-58163927D01*
X31911258Y-58159000D01*
X32088742Y-58159000D01*
X32113512Y-58163927D01*
G37*
G36*
X32113512Y-55623927D02*
G01*
X32262812Y-55653624D01*
X32426784Y-55721544D01*
X32574354Y-55820147D01*
X32699853Y-55945646D01*
X32798456Y-56093216D01*
X32866376Y-56257188D01*
X32901000Y-56431259D01*
X32901000Y-56608741D01*
X32866376Y-56782812D01*
X32798456Y-56946784D01*
X32699853Y-57094354D01*
X32574354Y-57219853D01*
X32426784Y-57318456D01*
X32262812Y-57386376D01*
X32113512Y-57416073D01*
X32088742Y-57421000D01*
X31911258Y-57421000D01*
X31886488Y-57416073D01*
X31737188Y-57386376D01*
X31573216Y-57318456D01*
X31425646Y-57219853D01*
X31300147Y-57094354D01*
X31201544Y-56946784D01*
X31133624Y-56782812D01*
X31099000Y-56608741D01*
X31099000Y-56431259D01*
X31133624Y-56257188D01*
X31201544Y-56093216D01*
X31300147Y-55945646D01*
X31425646Y-55820147D01*
X31573216Y-55721544D01*
X31737188Y-55653624D01*
X31886488Y-55623927D01*
X31911258Y-55619000D01*
X32088742Y-55619000D01*
X32113512Y-55623927D01*
G37*
G36*
X32113512Y-53083927D02*
G01*
X32262812Y-53113624D01*
X32426784Y-53181544D01*
X32574354Y-53280147D01*
X32699853Y-53405646D01*
X32798456Y-53553216D01*
X32866376Y-53717188D01*
X32901000Y-53891259D01*
X32901000Y-54068741D01*
X32866376Y-54242812D01*
X32798456Y-54406784D01*
X32699853Y-54554354D01*
X32574354Y-54679853D01*
X32426784Y-54778456D01*
X32262812Y-54846376D01*
X32113512Y-54876073D01*
X32088742Y-54881000D01*
X31911258Y-54881000D01*
X31886488Y-54876073D01*
X31737188Y-54846376D01*
X31573216Y-54778456D01*
X31425646Y-54679853D01*
X31300147Y-54554354D01*
X31201544Y-54406784D01*
X31133624Y-54242812D01*
X31099000Y-54068741D01*
X31099000Y-53891259D01*
X31133624Y-53717188D01*
X31201544Y-53553216D01*
X31300147Y-53405646D01*
X31425646Y-53280147D01*
X31573216Y-53181544D01*
X31737188Y-53113624D01*
X31886488Y-53083927D01*
X31911258Y-53079000D01*
X32088742Y-53079000D01*
X32113512Y-53083927D01*
G37*
G36*
X219831560Y-51079064D02*
G01*
X219983027Y-51109193D01*
X220197045Y-51197842D01*
X220197046Y-51197843D01*
X220389654Y-51326539D01*
X220553461Y-51490346D01*
X220579116Y-51528742D01*
X220682158Y-51682955D01*
X220770807Y-51896973D01*
X220816000Y-52124174D01*
X220816000Y-52355826D01*
X220770807Y-52583027D01*
X220682158Y-52797045D01*
X220682157Y-52797046D01*
X220553461Y-52989654D01*
X220389654Y-53153461D01*
X220261249Y-53239258D01*
X220197045Y-53282158D01*
X219983027Y-53370807D01*
X219831560Y-53400936D01*
X219755827Y-53416000D01*
X219524173Y-53416000D01*
X219448440Y-53400936D01*
X219296973Y-53370807D01*
X219082955Y-53282158D01*
X219018751Y-53239258D01*
X218890346Y-53153461D01*
X218726539Y-52989654D01*
X218597843Y-52797046D01*
X218597842Y-52797045D01*
X218509193Y-52583027D01*
X218464000Y-52355826D01*
X218464000Y-52124174D01*
X218509193Y-51896973D01*
X218597842Y-51682955D01*
X218700884Y-51528742D01*
X218726539Y-51490346D01*
X218890346Y-51326539D01*
X219082954Y-51197843D01*
X219082955Y-51197842D01*
X219296973Y-51109193D01*
X219448440Y-51079064D01*
X219524173Y-51064000D01*
X219755827Y-51064000D01*
X219831560Y-51079064D01*
G37*
G36*
X214751560Y-51079064D02*
G01*
X214903027Y-51109193D01*
X215117045Y-51197842D01*
X215117046Y-51197843D01*
X215309654Y-51326539D01*
X215473461Y-51490346D01*
X215499116Y-51528742D01*
X215602158Y-51682955D01*
X215690807Y-51896973D01*
X215736000Y-52124174D01*
X215736000Y-52355826D01*
X215690807Y-52583027D01*
X215602158Y-52797045D01*
X215602157Y-52797046D01*
X215473461Y-52989654D01*
X215309654Y-53153461D01*
X215181249Y-53239258D01*
X215117045Y-53282158D01*
X214903027Y-53370807D01*
X214751560Y-53400936D01*
X214675827Y-53416000D01*
X214444173Y-53416000D01*
X214368440Y-53400936D01*
X214216973Y-53370807D01*
X214002955Y-53282158D01*
X213938751Y-53239258D01*
X213810346Y-53153461D01*
X213646539Y-52989654D01*
X213517843Y-52797046D01*
X213517842Y-52797045D01*
X213429193Y-52583027D01*
X213384000Y-52355826D01*
X213384000Y-52124174D01*
X213429193Y-51896973D01*
X213517842Y-51682955D01*
X213620884Y-51528742D01*
X213646539Y-51490346D01*
X213810346Y-51326539D01*
X214002954Y-51197843D01*
X214002955Y-51197842D01*
X214216973Y-51109193D01*
X214368440Y-51079064D01*
X214444173Y-51064000D01*
X214675827Y-51064000D01*
X214751560Y-51079064D01*
G37*
G36*
X32113512Y-50543927D02*
G01*
X32262812Y-50573624D01*
X32426784Y-50641544D01*
X32574354Y-50740147D01*
X32699853Y-50865646D01*
X32798456Y-51013216D01*
X32866376Y-51177188D01*
X32901000Y-51351259D01*
X32901000Y-51528741D01*
X32866376Y-51702812D01*
X32798456Y-51866784D01*
X32699853Y-52014354D01*
X32574354Y-52139853D01*
X32426784Y-52238456D01*
X32262812Y-52306376D01*
X32113512Y-52336073D01*
X32088742Y-52341000D01*
X31911258Y-52341000D01*
X31886488Y-52336073D01*
X31737188Y-52306376D01*
X31573216Y-52238456D01*
X31425646Y-52139853D01*
X31300147Y-52014354D01*
X31201544Y-51866784D01*
X31133624Y-51702812D01*
X31099000Y-51528741D01*
X31099000Y-51351259D01*
X31133624Y-51177188D01*
X31201544Y-51013216D01*
X31300147Y-50865646D01*
X31425646Y-50740147D01*
X31573216Y-50641544D01*
X31737188Y-50573624D01*
X31886488Y-50543927D01*
X31911258Y-50539000D01*
X32088742Y-50539000D01*
X32113512Y-50543927D01*
G37*
G36*
X159471304Y-47087002D02*
G01*
X159890139Y-47260489D01*
X159890141Y-47260490D01*
X159913094Y-47275827D01*
X160267082Y-47512354D01*
X160587646Y-47832918D01*
X160698618Y-47999000D01*
X160834364Y-48202157D01*
X160839511Y-48209861D01*
X161012998Y-48628696D01*
X161101440Y-49073327D01*
X161101440Y-49526673D01*
X161012998Y-49971304D01*
X160893616Y-50259518D01*
X160839510Y-50390141D01*
X160799743Y-50449656D01*
X160587646Y-50767082D01*
X160267082Y-51087646D01*
X160133073Y-51177188D01*
X159890141Y-51339510D01*
X159890140Y-51339511D01*
X159890139Y-51339511D01*
X159471304Y-51512998D01*
X159026673Y-51601440D01*
X158573327Y-51601440D01*
X158128696Y-51512998D01*
X157709861Y-51339511D01*
X157709860Y-51339511D01*
X157709859Y-51339510D01*
X157466927Y-51177188D01*
X157332918Y-51087646D01*
X157012354Y-50767082D01*
X156800257Y-50449656D01*
X156760490Y-50390141D01*
X156706384Y-50259518D01*
X156587002Y-49971304D01*
X156498560Y-49526673D01*
X156498560Y-49073327D01*
X156587002Y-48628696D01*
X156760489Y-48209861D01*
X156765637Y-48202157D01*
X156901382Y-47999000D01*
X157012354Y-47832918D01*
X157332918Y-47512354D01*
X157686906Y-47275827D01*
X157709859Y-47260490D01*
X157709861Y-47260489D01*
X158128696Y-47087002D01*
X158573327Y-46998560D01*
X159026673Y-46998560D01*
X159471304Y-47087002D01*
G37*
G36*
X194168842Y-50232680D02*
G01*
X194233629Y-50259516D01*
X194291937Y-50298476D01*
X194341524Y-50348063D01*
X194380484Y-50406371D01*
X194407320Y-50471158D01*
X194421000Y-50539937D01*
X194421000Y-50610063D01*
X194407320Y-50678842D01*
X194380484Y-50743629D01*
X194341524Y-50801937D01*
X194291937Y-50851524D01*
X194233629Y-50890484D01*
X194168842Y-50917320D01*
X194100063Y-50931000D01*
X194029937Y-50931000D01*
X193961158Y-50917320D01*
X193896371Y-50890484D01*
X193838063Y-50851524D01*
X193788476Y-50801937D01*
X193749516Y-50743629D01*
X193722680Y-50678842D01*
X193709000Y-50610063D01*
X193709000Y-50539937D01*
X193722680Y-50471158D01*
X193749516Y-50406371D01*
X193788476Y-50348063D01*
X193838063Y-50298476D01*
X193896371Y-50259516D01*
X193961158Y-50232680D01*
X194029937Y-50219000D01*
X194100063Y-50219000D01*
X194168842Y-50232680D01*
G37*
G36*
X169123842Y-50232680D02*
G01*
X169188629Y-50259516D01*
X169246937Y-50298476D01*
X169296524Y-50348063D01*
X169335484Y-50406371D01*
X169362320Y-50471158D01*
X169376000Y-50539937D01*
X169376000Y-50610063D01*
X169362320Y-50678842D01*
X169335484Y-50743629D01*
X169296524Y-50801937D01*
X169246937Y-50851524D01*
X169188629Y-50890484D01*
X169123842Y-50917320D01*
X169055063Y-50931000D01*
X168984937Y-50931000D01*
X168916158Y-50917320D01*
X168851371Y-50890484D01*
X168793063Y-50851524D01*
X168743476Y-50801937D01*
X168704516Y-50743629D01*
X168677680Y-50678842D01*
X168664000Y-50610063D01*
X168664000Y-50539937D01*
X168677680Y-50471158D01*
X168704516Y-50406371D01*
X168743476Y-50348063D01*
X168793063Y-50298476D01*
X168851371Y-50259516D01*
X168916158Y-50232680D01*
X168984937Y-50219000D01*
X169055063Y-50219000D01*
X169123842Y-50232680D01*
G37*
G36*
X217291560Y-48539064D02*
G01*
X217443027Y-48569193D01*
X217657045Y-48657842D01*
X217657046Y-48657843D01*
X217849654Y-48786539D01*
X218013461Y-48950346D01*
X218039116Y-48988742D01*
X218142158Y-49142955D01*
X218230807Y-49356973D01*
X218276000Y-49584174D01*
X218276000Y-49815826D01*
X218230807Y-50043027D01*
X218142158Y-50257045D01*
X218099258Y-50321249D01*
X218013461Y-50449654D01*
X217849654Y-50613461D01*
X217751805Y-50678841D01*
X217657045Y-50742158D01*
X217443027Y-50830807D01*
X217338875Y-50851524D01*
X217215827Y-50876000D01*
X216984173Y-50876000D01*
X216861125Y-50851524D01*
X216756973Y-50830807D01*
X216542955Y-50742158D01*
X216448195Y-50678841D01*
X216350346Y-50613461D01*
X216186539Y-50449654D01*
X216100742Y-50321249D01*
X216057842Y-50257045D01*
X215969193Y-50043027D01*
X215924000Y-49815826D01*
X215924000Y-49584174D01*
X215969193Y-49356973D01*
X216057842Y-49142955D01*
X216160884Y-48988742D01*
X216186539Y-48950346D01*
X216350346Y-48786539D01*
X216542954Y-48657843D01*
X216542955Y-48657842D01*
X216756973Y-48569193D01*
X216908440Y-48539064D01*
X216984173Y-48524000D01*
X217215827Y-48524000D01*
X217291560Y-48539064D01*
G37*
G36*
X32113512Y-48003927D02*
G01*
X32262812Y-48033624D01*
X32426784Y-48101544D01*
X32574354Y-48200147D01*
X32699853Y-48325646D01*
X32798456Y-48473216D01*
X32866376Y-48637188D01*
X32901000Y-48811259D01*
X32901000Y-48988741D01*
X32866376Y-49162812D01*
X32798456Y-49326784D01*
X32699853Y-49474354D01*
X32574354Y-49599853D01*
X32426784Y-49698456D01*
X32262812Y-49766376D01*
X32113512Y-49796073D01*
X32088742Y-49801000D01*
X31911258Y-49801000D01*
X31886488Y-49796073D01*
X31737188Y-49766376D01*
X31573216Y-49698456D01*
X31425646Y-49599853D01*
X31300147Y-49474354D01*
X31201544Y-49326784D01*
X31133624Y-49162812D01*
X31099000Y-48988741D01*
X31099000Y-48811259D01*
X31133624Y-48637188D01*
X31201544Y-48473216D01*
X31300147Y-48325646D01*
X31425646Y-48200147D01*
X31573216Y-48101544D01*
X31737188Y-48033624D01*
X31886488Y-48003927D01*
X31911258Y-47999000D01*
X32088742Y-47999000D01*
X32113512Y-48003927D01*
G37*
G36*
X194168842Y-48022680D02*
G01*
X194233629Y-48049516D01*
X194291937Y-48088476D01*
X194341524Y-48138063D01*
X194380484Y-48196371D01*
X194407320Y-48261158D01*
X194421000Y-48329937D01*
X194421000Y-48400063D01*
X194407320Y-48468842D01*
X194380484Y-48533629D01*
X194341524Y-48591937D01*
X194291937Y-48641524D01*
X194233629Y-48680484D01*
X194168842Y-48707320D01*
X194100063Y-48721000D01*
X194029937Y-48721000D01*
X193961158Y-48707320D01*
X193896371Y-48680484D01*
X193838063Y-48641524D01*
X193788476Y-48591937D01*
X193749516Y-48533629D01*
X193722680Y-48468842D01*
X193709000Y-48400063D01*
X193709000Y-48329937D01*
X193722680Y-48261158D01*
X193749516Y-48196371D01*
X193788476Y-48138063D01*
X193838063Y-48088476D01*
X193896371Y-48049516D01*
X193961158Y-48022680D01*
X194029937Y-48009000D01*
X194100063Y-48009000D01*
X194168842Y-48022680D01*
G37*
G36*
X169123842Y-48022680D02*
G01*
X169188629Y-48049516D01*
X169246937Y-48088476D01*
X169296524Y-48138063D01*
X169335484Y-48196371D01*
X169362320Y-48261158D01*
X169376000Y-48329937D01*
X169376000Y-48400063D01*
X169362320Y-48468842D01*
X169335484Y-48533629D01*
X169296524Y-48591937D01*
X169246937Y-48641524D01*
X169188629Y-48680484D01*
X169123842Y-48707320D01*
X169055063Y-48721000D01*
X168984937Y-48721000D01*
X168916158Y-48707320D01*
X168851371Y-48680484D01*
X168793063Y-48641524D01*
X168743476Y-48591937D01*
X168704516Y-48533629D01*
X168677680Y-48468842D01*
X168664000Y-48400063D01*
X168664000Y-48329937D01*
X168677680Y-48261158D01*
X168704516Y-48196371D01*
X168743476Y-48138063D01*
X168793063Y-48088476D01*
X168851371Y-48049516D01*
X168916158Y-48022680D01*
X168984937Y-48009000D01*
X169055063Y-48009000D01*
X169123842Y-48022680D01*
G37*
G36*
X214751560Y-45999064D02*
G01*
X214903027Y-46029193D01*
X215117045Y-46117842D01*
X215117046Y-46117843D01*
X215309654Y-46246539D01*
X215473461Y-46410346D01*
X215499116Y-46448742D01*
X215602158Y-46602955D01*
X215690807Y-46816973D01*
X215736000Y-47044174D01*
X215736000Y-47275826D01*
X215690807Y-47503027D01*
X215602158Y-47717045D01*
X215602157Y-47717046D01*
X215473461Y-47909654D01*
X215309654Y-48073461D01*
X215212970Y-48138063D01*
X215117045Y-48202158D01*
X214903027Y-48290807D01*
X214751560Y-48320936D01*
X214675827Y-48336000D01*
X214444173Y-48336000D01*
X214368440Y-48320936D01*
X214216973Y-48290807D01*
X214002955Y-48202158D01*
X213907030Y-48138063D01*
X213810346Y-48073461D01*
X213646539Y-47909654D01*
X213517843Y-47717046D01*
X213517842Y-47717045D01*
X213429193Y-47503027D01*
X213384000Y-47275826D01*
X213384000Y-47044174D01*
X213429193Y-46816973D01*
X213517842Y-46602955D01*
X213620884Y-46448742D01*
X213646539Y-46410346D01*
X213810346Y-46246539D01*
X214002954Y-46117843D01*
X214002955Y-46117842D01*
X214216973Y-46029193D01*
X214368440Y-45999064D01*
X214444173Y-45984000D01*
X214675827Y-45984000D01*
X214751560Y-45999064D01*
G37*
G36*
X219831560Y-45999064D02*
G01*
X219983027Y-46029193D01*
X220197045Y-46117842D01*
X220197046Y-46117843D01*
X220389654Y-46246539D01*
X220553461Y-46410346D01*
X220579116Y-46448742D01*
X220682158Y-46602955D01*
X220770807Y-46816973D01*
X220816000Y-47044174D01*
X220816000Y-47275826D01*
X220770807Y-47503027D01*
X220682158Y-47717045D01*
X220682157Y-47717046D01*
X220553461Y-47909654D01*
X220389654Y-48073461D01*
X220292970Y-48138063D01*
X220197045Y-48202158D01*
X219983027Y-48290807D01*
X219831560Y-48320936D01*
X219755827Y-48336000D01*
X219524173Y-48336000D01*
X219448440Y-48320936D01*
X219296973Y-48290807D01*
X219082955Y-48202158D01*
X218987030Y-48138063D01*
X218890346Y-48073461D01*
X218726539Y-47909654D01*
X218597843Y-47717046D01*
X218597842Y-47717045D01*
X218509193Y-47503027D01*
X218464000Y-47275826D01*
X218464000Y-47044174D01*
X218509193Y-46816973D01*
X218597842Y-46602955D01*
X218700884Y-46448742D01*
X218726539Y-46410346D01*
X218890346Y-46246539D01*
X219082954Y-46117843D01*
X219082955Y-46117842D01*
X219296973Y-46029193D01*
X219448440Y-45999064D01*
X219524173Y-45984000D01*
X219755827Y-45984000D01*
X219831560Y-45999064D01*
G37*
G36*
X32113512Y-45463927D02*
G01*
X32262812Y-45493624D01*
X32426784Y-45561544D01*
X32574354Y-45660147D01*
X32699853Y-45785646D01*
X32798456Y-45933216D01*
X32866376Y-46097188D01*
X32901000Y-46271259D01*
X32901000Y-46448741D01*
X32866376Y-46622812D01*
X32798456Y-46786784D01*
X32699853Y-46934354D01*
X32574354Y-47059853D01*
X32426784Y-47158456D01*
X32262812Y-47226376D01*
X32113512Y-47256073D01*
X32088742Y-47261000D01*
X31911258Y-47261000D01*
X31886488Y-47256073D01*
X31737188Y-47226376D01*
X31573216Y-47158456D01*
X31425646Y-47059853D01*
X31300147Y-46934354D01*
X31201544Y-46786784D01*
X31133624Y-46622812D01*
X31099000Y-46448741D01*
X31099000Y-46271259D01*
X31133624Y-46097188D01*
X31201544Y-45933216D01*
X31300147Y-45785646D01*
X31425646Y-45660147D01*
X31573216Y-45561544D01*
X31737188Y-45493624D01*
X31886488Y-45463927D01*
X31911258Y-45459000D01*
X32088742Y-45459000D01*
X32113512Y-45463927D01*
G37*
G36*
X32113512Y-42923927D02*
G01*
X32262812Y-42953624D01*
X32426784Y-43021544D01*
X32574354Y-43120147D01*
X32699853Y-43245646D01*
X32798456Y-43393216D01*
X32866376Y-43557188D01*
X32901000Y-43731259D01*
X32901000Y-43908741D01*
X32866376Y-44082812D01*
X32798456Y-44246784D01*
X32699853Y-44394354D01*
X32574354Y-44519853D01*
X32426784Y-44618456D01*
X32262812Y-44686376D01*
X32113512Y-44716073D01*
X32088742Y-44721000D01*
X31911258Y-44721000D01*
X31886488Y-44716073D01*
X31737188Y-44686376D01*
X31573216Y-44618456D01*
X31425646Y-44519853D01*
X31300147Y-44394354D01*
X31201544Y-44246784D01*
X31133624Y-44082812D01*
X31099000Y-43908741D01*
X31099000Y-43731259D01*
X31133624Y-43557188D01*
X31201544Y-43393216D01*
X31300147Y-43245646D01*
X31425646Y-43120147D01*
X31573216Y-43021544D01*
X31737188Y-42953624D01*
X31886488Y-42923927D01*
X31911258Y-42919000D01*
X32088742Y-42919000D01*
X32113512Y-42923927D01*
G37*
G36*
X32113512Y-40383927D02*
G01*
X32262812Y-40413624D01*
X32426784Y-40481544D01*
X32574354Y-40580147D01*
X32699853Y-40705646D01*
X32798456Y-40853216D01*
X32866376Y-41017188D01*
X32901000Y-41191259D01*
X32901000Y-41368741D01*
X32866376Y-41542812D01*
X32798456Y-41706784D01*
X32699853Y-41854354D01*
X32574354Y-41979853D01*
X32426784Y-42078456D01*
X32262812Y-42146376D01*
X32113512Y-42176073D01*
X32088742Y-42181000D01*
X31911258Y-42181000D01*
X31886488Y-42176073D01*
X31737188Y-42146376D01*
X31573216Y-42078456D01*
X31425646Y-41979853D01*
X31300147Y-41854354D01*
X31201544Y-41706784D01*
X31133624Y-41542812D01*
X31099000Y-41368741D01*
X31099000Y-41191259D01*
X31133624Y-41017188D01*
X31201544Y-40853216D01*
X31300147Y-40705646D01*
X31425646Y-40580147D01*
X31573216Y-40481544D01*
X31737188Y-40413624D01*
X31886488Y-40383927D01*
X31911258Y-40379000D01*
X32088742Y-40379000D01*
X32113512Y-40383927D01*
G37*
G36*
X159671304Y-36087002D02*
G01*
X160090139Y-36260489D01*
X160090141Y-36260490D01*
X160279891Y-36387277D01*
X160467082Y-36512354D01*
X160787646Y-36832918D01*
X161039511Y-37209861D01*
X161212998Y-37628696D01*
X161301440Y-38073327D01*
X161301440Y-38526673D01*
X161212998Y-38971304D01*
X161039511Y-39390139D01*
X161039510Y-39390141D01*
X160787645Y-39767083D01*
X160467083Y-40087645D01*
X160090141Y-40339510D01*
X160090140Y-40339511D01*
X160090139Y-40339511D01*
X159671304Y-40512998D01*
X159226673Y-40601440D01*
X158773327Y-40601440D01*
X158328696Y-40512998D01*
X157909861Y-40339511D01*
X157909860Y-40339511D01*
X157909859Y-40339510D01*
X157532917Y-40087645D01*
X157212355Y-39767083D01*
X156960490Y-39390141D01*
X156960489Y-39390139D01*
X156787002Y-38971304D01*
X156698560Y-38526673D01*
X156698560Y-38073327D01*
X156787002Y-37628696D01*
X156960489Y-37209861D01*
X157212354Y-36832918D01*
X157532918Y-36512354D01*
X157720109Y-36387277D01*
X157909859Y-36260490D01*
X157909861Y-36260489D01*
X158328696Y-36087002D01*
X158773327Y-35998560D01*
X159226673Y-35998560D01*
X159671304Y-36087002D01*
G37*
G36*
X32901000Y-39641000D02*
G01*
X31099000Y-39641000D01*
X31099000Y-37839000D01*
X32901000Y-37839000D01*
X32901000Y-39641000D01*
G37*
M02*
