M48
; DRILL file {KiCad 5.1.5-52549c5~84~ubuntu18.04.1} date Sun 26 Apr 2020 13:35:20 ACST
; FORMAT={-:-/ absolute / metric / decimal}
; #@! TF.CreationDate,2020-04-26T13:35:20+09:30
; #@! TF.GenerationSoftware,Kicad,Pcbnew,5.1.5-52549c5~84~ubuntu18.04.1
; #@! TF.FileFunction,Plated,1,2,PTH
FMAT,2
METRIC
T1C0.200
T2C0.300
T3C0.400
T4C0.460
T5C1.000
T6C1.500
T7C1.700
T8C1.999
T9C3.200
%
G90
G05
T1
X185.15Y-66.95
X185.15Y-68.05
X186.45Y-66.95
X186.45Y-68.05
X101.3Y-32.175
X101.3Y-33.475
X102.4Y-32.175
X102.4Y-33.475
X64.2Y-52.4
X64.2Y-53.267
X64.2Y-54.133
X64.2Y-55.0
X65.067Y-52.4
X65.067Y-53.267
X65.067Y-54.133
X65.067Y-55.0
X65.933Y-52.4
X65.933Y-53.267
X65.933Y-54.133
X65.933Y-55.0
X66.8Y-52.4
X66.8Y-53.267
X66.8Y-54.133
X66.8Y-55.0
X124.25Y-129.45
X124.25Y-130.75
X125.35Y-129.45
X125.35Y-130.75
T2
X194.065Y-48.365
X194.065Y-50.575
X90.15Y-55.35
X90.15Y-56.1
X90.15Y-56.85
X90.9Y-55.35
X90.9Y-56.1
X90.9Y-56.85
X91.65Y-55.35
X91.65Y-56.1
X91.65Y-56.85
X111.95Y-135.95
X111.95Y-136.7
X111.95Y-137.45
X112.7Y-135.95
X112.7Y-136.7
X112.7Y-137.45
X113.45Y-135.95
X113.45Y-136.7
X113.45Y-137.45
X169.02Y-48.365
X169.02Y-50.575
T3
X36.9Y-67.4
X39.1Y-67.4
X41.2Y-67.4
X43.1Y-67.4
X44.0Y-57.9
X44.0Y-59.9
X44.0Y-65.1
X44.1Y-38.3
X44.1Y-62.2
X44.1Y-69.6
X44.1Y-71.9
X44.2Y-41.0
X44.2Y-74.6
X44.2Y-77.4
X44.2Y-79.6
X44.6Y-67.4
X45.225Y-35.375
X46.7Y-79.6
X47.1Y-57.4
X47.2Y-47.2
X47.2Y-59.2
X47.4Y-50.1
X48.4Y-44.4
X49.0Y-42.9
X49.3Y-47.2
X49.3Y-79.7
X49.4Y-49.8
X49.4Y-57.1
X49.4Y-60.6
X49.6Y-40.0
X49.7Y-44.4
X50.1Y-63.2
X50.55Y-40.85
X50.9Y-66.6
X51.05Y-41.35
X51.1Y-38.9
X52.1Y-79.7
X53.9Y-70.4
X54.0Y-74.2
X54.4Y-39.3
X54.6Y-79.7
X55.4Y-65.8
X55.6Y-60.4
X55.9Y-68.6
X56.1Y-63.4
X56.525Y-60.1
X56.6Y-65.8
X56.9Y-68.6
X57.2Y-44.3
X57.5Y-49.2
X57.5Y-70.4
X58.1Y-68.6
X58.3Y-55.2
X58.3Y-39.5
X58.5Y-79.6
X58.8Y-30.0
X58.975Y-32.125
X60.4Y-28.4
X60.5Y-42.9
X60.8Y-60.0
X61.4Y-70.1
X61.5Y-60.7
X61.5Y-62.0
X61.7Y-55.3
X61.8Y-64.8
X61.9Y-79.7
X62.4Y-26.6
X62.6Y-75.3
X63.2Y-63.0
X63.5Y-64.3
X63.75Y-49.65
X63.8Y-25.1
X64.2Y-69.9
X65.3Y-79.5
X66.3Y-49.6
X67.3Y-37.7
X67.4Y-44.8
X67.6Y-69.9
X67.625Y-48.325
X68.2Y-25.2
X68.3Y-79.5
X68.9Y-36.0
X69.3Y-40.0
X70.1Y-54.0
X70.7Y-70.1
X71.2Y-79.5
X72.0Y-43.8
X72.8Y-25.4
X72.9Y-67.0
X73.1Y-37.7
X73.8Y-56.9
X73.8Y-57.9
X73.8Y-70.0
X74.2Y-30.9
X74.3Y-27.8
X74.3Y-74.9
X74.4Y-79.4
X74.5Y-38.7
X74.5Y-65.0
X74.7Y-53.0
X74.8Y-47.5
X74.9Y-50.2
X75.5Y-44.3
X76.6Y-25.3
X77.1Y-79.6
X77.4Y-64.7
X77.5Y-35.9
X77.8Y-41.4
X78.6Y-44.7
X78.6Y-57.0
X78.6Y-57.9
X78.7Y-29.7
X79.8Y-47.1
X80.2Y-50.2
X80.2Y-79.5
X80.7Y-64.7
X81.5Y-25.1
X81.5Y-55.1
X81.6Y-33.0
X81.9Y-40.5
X82.3Y-62.8
X82.7Y-69.8
X82.9Y-79.5
X83.0Y-27.5
X83.2Y-32.4
X83.3Y-52.2
X83.5Y-46.3
X84.3Y-38.2
X84.7Y-62.1
X85.1Y-74.2
X85.1Y-76.7
X85.2Y-79.4
X85.8Y-43.6
X86.0Y-23.0
X86.3Y-47.2
X86.6Y-39.8
X86.8Y-25.5
X86.8Y-34.0
X86.9Y-51.1
X86.9Y-58.1
X86.9Y-72.3
X87.3Y-54.1
X87.4Y-23.0
X87.5Y-60.6
X87.5Y-63.6
X87.8Y-76.3
X87.9Y-28.2
X87.9Y-78.7
X88.1Y-58.9
X88.1Y-62.0
X88.2Y-32.2
X88.5Y-53.0
X88.6Y-23.0
X88.6Y-64.8
X88.7Y-66.6
X89.0Y-68.6
X89.2Y-73.4
X89.4Y-25.0
X90.0Y-76.3
X90.1Y-71.2
X90.1Y-79.6
X90.2Y-74.3
X90.5Y-30.4
X90.5Y-72.8
X91.1Y-34.9
X92.2Y-23.6
X92.3Y-25.4
X92.3Y-27.2
X92.6Y-34.0
X92.7Y-52.6
X93.3Y-28.6
X93.5Y-53.5
X93.5Y-59.2
X93.65Y-68.65
X93.8Y-110.7
X93.8Y-165.1
X93.9Y-113.4
X93.9Y-117.1
X93.9Y-121.0
X93.9Y-129.3
X93.9Y-131.3
X94.0Y-67.1
X94.0Y-70.2
X94.0Y-133.8
X94.1Y-27.4
X94.1Y-127.2
X94.1Y-140.6
X94.1Y-146.1
X94.1Y-149.3
X94.1Y-152.6
X94.1Y-155.0
X94.1Y-161.7
X94.2Y-143.3
X94.2Y-158.2
X94.3Y-73.8
X94.4Y-64.9
X94.4Y-71.5
X94.4Y-79.2
X94.4Y-136.5
X94.5Y-76.4
X94.6Y-62.2
X94.8Y-63.5
X94.8Y-168.1
X94.9Y-125.9
X95.0Y-60.7
X95.1Y-33.5
X95.1Y-37.3
X95.1Y-139.2
X95.2Y-57.5
X95.8Y-120.8
X96.1Y-49.5
X96.1Y-124.9
X96.4Y-43.7
X96.5Y-76.4
X96.5Y-117.4
X96.6Y-78.6
X96.6Y-110.6
X96.8Y-168.1
X97.0Y-61.3
X97.0Y-64.4
X97.3Y-123.5
X97.4Y-139.5
X97.79Y-147.32
X97.79Y-154.94
X97.8Y-68.5
X98.2Y-27.9
X98.2Y-57.3
X98.7Y-122.1
X98.8Y-136.2
X99.0Y-168.1
X99.2Y-140.4
X99.2Y-142.2
X99.3Y-129.6
X99.3Y-143.8
X99.4Y-110.6
X99.8Y-61.0
X100.0Y-35.2
X100.1Y-29.3
X100.1Y-120.8
X100.3Y-59.0
X100.3Y-129.5
X100.33Y-160.02
X100.4Y-55.6
X100.5Y-112.7
X100.9Y-27.2
X101.0Y-23.7
X101.0Y-25.4
X101.1Y-142.3
X101.3Y-116.4
X101.3Y-127.7
X101.4Y-30.2
X101.4Y-119.6
X101.4Y-144.3
X101.7Y-45.3
X101.8Y-47.7
X101.8Y-134.5
X101.9Y-168.2
X102.1Y-133.8
X102.3Y-73.2
X102.4Y-129.5
X102.5Y-127.6
X102.7Y-114.2
X102.8Y-118.1
X102.8Y-126.4
X102.87Y-149.86
X102.9Y-28.9
X103.0Y-139.5
X103.0Y-141.1
X103.2Y-143.0
X103.4Y-35.2
X103.6Y-79.1
X103.9Y-125.4
X104.0Y-116.6
X104.14Y-156.21
X104.2Y-112.8
X104.2Y-139.4
X104.3Y-114.6
X104.4Y-52.1
X104.5Y-64.3
X104.6Y-110.8
X104.6Y-126.6
X104.7Y-44.9
X105.0Y-41.9
X105.1Y-38.6
X105.1Y-166.4
X105.1Y-168.0
X105.3Y-164.0
X105.6Y-58.4
X105.6Y-123.4
X105.7Y-31.4
X105.9Y-124.9
X106.0Y-139.5
X106.0Y-162.2
X107.1Y-23.0
X107.1Y-123.8
X107.2Y-35.4
X107.3Y-25.2
X107.4Y-121.7
X107.5Y-139.4
X107.6Y-161.4
X107.7Y-142.3
X107.7Y-144.3
X108.2Y-127.6
X108.4Y-23.0
X108.5Y-72.7
X108.7Y-147.6
X108.8Y-123.1
X108.9Y-28.3
X109.0Y-64.2
X109.2Y-68.0
X109.2Y-111.2
X109.2Y-120.6
X109.3Y-31.4
X109.3Y-138.9
X109.3Y-141.4
X109.4Y-58.4
X109.4Y-114.4
X109.6Y-23.0
X109.7Y-145.8
X109.8Y-116.5
X109.8Y-158.7
X109.8Y-162.8
X109.8Y-166.6
X109.9Y-118.4
X110.1Y-160.9
X110.2Y-25.3
X110.2Y-149.8
X110.2Y-154.2
X110.2Y-156.4
X110.3Y-147.6
X110.3Y-152.0
X110.5Y-124.9
X110.7Y-28.5
X110.7Y-68.0
X110.9Y-79.2
X110.9Y-139.9
X111.0Y-41.0
X111.0Y-49.3
X111.1Y-35.6
X111.1Y-123.1
X111.2Y-114.2
X111.5Y-44.7
X111.6Y-116.5
X112.1Y-68.0
X112.2Y-73.2
X113.1Y-113.1
X113.1Y-122.9
X113.2Y-115.6
X113.4Y-111.0
X113.9Y-47.5
X113.9Y-118.0
X114.2Y-166.2
X114.3Y-64.5
X114.3Y-140.97
X114.4Y-163.0
X114.5Y-23.4
X114.5Y-127.3
X114.6Y-120.0
X114.7Y-33.8
X114.7Y-121.9
X114.7Y-131.0
X114.9Y-28.9
X114.9Y-37.2
X115.3Y-41.6
X115.4Y-60.7
X115.57Y-139.7
X115.57Y-143.51
X115.57Y-146.05
X115.57Y-148.59
X115.57Y-151.13
X115.57Y-153.67
X115.6Y-52.8
X116.2Y-110.8
X116.2Y-155.9
X116.84Y-134.62
X117.8Y-161.1
X117.9Y-72.1
X118.0Y-158.1
X118.0Y-162.7
X118.11Y-140.97
X118.2Y-23.2
X118.2Y-49.0
X118.3Y-43.4
X118.5Y-166.5
X118.7Y-164.6
X118.7Y-168.1
X119.1Y-110.9
X119.38Y-120.65
X119.38Y-133.35
X119.38Y-146.05
X120.1Y-79.2
X120.3Y-60.3
X120.5Y-123.7
X120.65Y-115.57
X120.65Y-132.08
X120.65Y-140.97
X121.3Y-168.1
X121.9Y-41.1
X121.92Y-133.35
X121.92Y-152.4
X121.92Y-158.75
X122.1Y-110.9
X122.3Y-67.0
X122.9Y-48.7
X122.9Y-132.4
X123.0Y-23.0
X123.19Y-120.65
X123.19Y-140.97
X123.19Y-163.83
X124.0Y-134.3
X124.46Y-167.64
X124.8Y-132.2
X124.9Y-38.3
X125.3Y-110.9
X125.6Y-45.3
X125.73Y-113.03
X125.73Y-118.11
X125.73Y-133.35
X125.73Y-140.97
X127.0Y-134.62
X127.0Y-146.05
X127.0Y-153.67
X127.0Y-167.64
X127.1Y-54.9
X128.27Y-115.57
X128.27Y-120.65
X128.27Y-140.97
X128.5Y-36.1
X128.7Y-79.7
X128.9Y-111.0
X129.0Y-22.9
X129.3Y-42.1
X129.3Y-71.9
X129.4Y-137.6
X129.54Y-160.02
X129.54Y-167.64
X130.5Y-63.3
X130.81Y-114.3
X130.81Y-125.73
X130.81Y-134.62
X130.81Y-140.97
X130.81Y-149.86
X132.0Y-110.9
X132.08Y-115.57
X132.08Y-118.11
X132.08Y-120.65
X132.08Y-123.19
X132.08Y-167.64
X132.9Y-129.6
X132.9Y-131.1
X133.1Y-40.6
X133.2Y-35.9
X133.35Y-134.62
X133.35Y-140.97
X133.35Y-146.05
X134.1Y-56.5
X134.5Y-23.0
X134.5Y-78.9
X134.62Y-133.35
X134.62Y-158.75
X135.89Y-129.54
X135.89Y-142.24
X135.89Y-149.86
X135.89Y-167.64
X136.1Y-111.1
X136.8Y-67.6
X137.1Y-120.4
X137.16Y-133.35
X137.2Y-35.8
X137.2Y-118.6
X137.2Y-122.6
X137.7Y-40.4
X138.43Y-127.0
X138.43Y-129.54
X138.43Y-132.08
X138.43Y-135.89
X138.43Y-138.43
X138.43Y-140.97
X138.43Y-143.51
X138.43Y-144.78
X138.43Y-147.32
X138.43Y-149.86
X138.43Y-151.13
X138.43Y-153.67
X138.43Y-156.21
X138.43Y-158.75
X138.43Y-161.29
X138.43Y-163.83
X138.43Y-166.37
X138.5Y-117.4
X138.5Y-123.7
X138.6Y-111.5
X138.6Y-120.4
X138.8Y-114.4
X140.0Y-29.2
X140.4Y-41.3
X140.9Y-48.1
X141.9Y-22.9
X142.0Y-79.1
X142.8Y-36.0
X143.6Y-40.7
X145.0Y-60.9
X147.9Y-23.4
X147.9Y-35.8
X148.3Y-40.6
X149.4Y-79.3
X152.3Y-22.7
X153.3Y-48.3
X153.3Y-52.9
X153.3Y-59.1
X153.6Y-44.5
X153.8Y-42.0
X153.8Y-65.6
X154.5Y-40.8
X155.1Y-69.2
X155.2Y-48.7
X155.7Y-50.8
X156.0Y-44.2
X156.3Y-23.0
X156.5Y-46.6
X156.7Y-69.2
X157.0Y-41.3
X157.1Y-79.6
X157.2Y-52.5
X157.8Y-66.4
X157.9Y-69.2
X158.6Y-44.0
X158.9Y-42.6
X159.3Y-69.2
X159.6Y-45.7
X159.9Y-53.3
X161.1Y-67.1
X161.3Y-46.2
X161.8Y-52.7
X162.7Y-46.2
X163.3Y-23.0
X164.4Y-79.2
X164.8Y-52.6
X164.9Y-46.2
X165.5Y-67.3
X167.1Y-69.6
X167.2Y-46.5
X167.6Y-52.4
X168.5Y-69.6
X168.7Y-30.2
X168.8Y-46.5
X169.4Y-66.7
X169.7Y-69.6
X170.3Y-47.2
X170.5Y-69.6
X170.9Y-22.8
X171.0Y-52.7
X171.4Y-79.2
X171.8Y-56.8
X171.8Y-61.4
X171.9Y-59.1
X172.0Y-54.0
X172.2Y-51.7
X172.3Y-46.8
X172.7Y-66.8
X173.1Y-44.9
X174.6Y-36.2
X174.9Y-61.9
X175.8Y-44.8
X176.2Y-57.1
X177.6Y-22.8
X177.7Y-79.5
X178.1Y-45.0
X179.0Y-64.8
X179.75Y-66.95
X180.1Y-44.5
X180.7Y-67.6
X181.0Y-57.6
X181.82Y-47.1
X181.82Y-49.64
X181.82Y-50.91
X181.82Y-52.18
X181.9Y-54.4
X182.3Y-44.5
X182.8Y-30.3
X183.7Y-22.9
X184.1Y-49.8
X184.3Y-37.4
X184.8Y-52.4
X185.1Y-44.3
X185.3Y-49.4
X185.45Y-59.45
X186.55Y-59.45
X187.8Y-45.0
X187.8Y-52.6
X190.4Y-23.2
X190.4Y-52.6
X190.5Y-45.1
X191.5Y-71.0
X191.8Y-47.2
X192.2Y-51.8
X192.9Y-34.6
X194.3Y-46.3
X195.0Y-52.3
X196.0Y-44.4
X196.4Y-41.4
X196.96Y-39.31
X196.96Y-58.36
X197.0Y-79.5
X197.4Y-44.9
X197.5Y-53.0
X198.23Y-39.31
X198.23Y-58.36
X199.1Y-22.6
X199.2Y-41.0
X199.8Y-63.4
X199.9Y-29.8
X200.0Y-78.9
X201.8Y-52.5
X201.9Y-41.2
X202.3Y-44.7
X203.9Y-72.0
X204.4Y-22.4
X205.1Y-41.2
X205.1Y-44.8
X205.2Y-52.9
X206.9Y-52.8
X207.3Y-44.9
X208.2Y-78.3
X209.2Y-46.9
X209.2Y-52.2
X209.9Y-29.7
X210.6Y-64.7
X211.6Y-22.6
X211.7Y-47.0
X211.9Y-52.1
X214.1Y-78.6
X217.2Y-23.2
X220.1Y-66.6
X220.2Y-72.2
X220.3Y-61.6
X220.6Y-42.8
X220.8Y-29.6
X220.8Y-79.3
X221.0Y-36.7
X221.2Y-56.4
T4
X107.62Y-163.08
X116.38Y-163.08
X87.82Y-74.46
X96.58Y-74.46
T5
X32.0Y-38.74
X32.0Y-41.28
X32.0Y-43.82
X32.0Y-46.36
X32.0Y-48.9
X32.0Y-51.44
X32.0Y-53.98
X32.0Y-56.52
X32.0Y-59.06
X32.0Y-61.6
T6
X217.1Y-49.7
T7
X214.56Y-47.16
X214.56Y-52.24
X219.64Y-47.16
X219.64Y-52.24
T8
X134.7Y-126.3
X158.8Y-49.3
X159.0Y-38.3
X135.2Y-137.7
T9
X47.0Y-25.47
X47.0Y-76.47
X97.3Y-114.0
X97.3Y-165.0
X121.0Y-25.47
X121.0Y-76.47
X135.3Y-114.0
X135.3Y-165.0
X159.0Y-25.47
X159.0Y-76.47
X218.0Y-25.47
X218.0Y-76.47
T0
M30
